<svg xmlns="http://www.w3.org/2000/svg" viewBox="0 0 893.72 750.23"><defs><style>.cls-1,.cls-2{fill:#ba0c2f;}.cls-1{fill-opacity:0;stroke:#a8a6a7;stroke-miterlimit:10;stroke-width:8px;}.cls-3{fill:#5e5d63;}</style></defs><g id="container"><g id="logotype_and_outline"><rect class="cls-1" x="3.98" y="4" width="885.65" height="742.27" rx="70.94"/><path class="cls-2" d="M55.65,230V73.85A17.21,17.21,0,0,1,72.86,56.64h27.3a2.64,2.64,0,0,1,2.64,2.64v11.9a2.61,2.61,0,0,0,4.59,1.7l1.55-1.8A64.81,64.81,0,0,1,118.73,62a48.86,48.86,0,0,1,12.78-7A44,44,0,0,1,147,52.32a47.22,47.22,0,0,1,9,.67q2.1.42,3.93.84a2.62,2.62,0,0,1,2,2.57V94.67a2.64,2.64,0,0,1-3.38,2.53c-1.17-.33-2.58-.68-4.25-1.06a65.32,65.32,0,0,0-13.95-1.32A37.28,37.28,0,0,0,125,97.64a28.64,28.64,0,0,0-10.29,7.47,30.77,30.77,0,0,0-6,11.12,46.57,46.57,0,0,0-2,13.78V230a2.64,2.64,0,0,1-2.64,2.64H58.29A2.64,2.64,0,0,1,55.65,230Z"/><path class="cls-2" d="M260.15,236.91a108.27,108.27,0,0,1-34.86-5.48,78.73,78.73,0,0,1-28.55-16.76,77.71,77.71,0,0,1-19.26-28.39q-7-17.09-7-40v-6.64q0-21.58,7-37.85a76.13,76.13,0,0,1,19.26-27.23A83.47,83.47,0,0,1,225.29,58,110.37,110.37,0,0,1,295,58a83.56,83.56,0,0,1,28.55,16.59,76.13,76.13,0,0,1,19.26,27.23q7,16.27,7,37.85v6.64q0,22.58-7,39.67a77.8,77.8,0,0,1-19.26,28.39A80.94,80.94,0,0,1,295,231.27,105.65,105.65,0,0,1,260.15,236.91Zm0-42.49a36.7,36.7,0,0,0,15.94-3.32,30.49,30.49,0,0,0,11.62-9.63,46.41,46.41,0,0,0,7.14-15.27,74.4,74.4,0,0,0,2.49-19.92v-6.64a63.34,63.34,0,0,0-2.49-18.26,41.29,41.29,0,0,0-7.14-14.11,32.59,32.59,0,0,0-11.62-9.13,39.9,39.9,0,0,0-31.87,0,32.5,32.5,0,0,0-11.62,9.13,41.12,41.12,0,0,0-7.14,14.11A63.34,63.34,0,0,0,223,139.64v6.64a75.76,75.76,0,0,0,2.49,20.25,46.11,46.11,0,0,0,7.14,15.27,29,29,0,0,0,11.62,9.46A38.13,38.13,0,0,0,260.15,194.42Z"/><path class="cls-2" d="M452.71,236.91q-21.58,0-37-4.48t-25.4-12.28a50.94,50.94,0,0,1-14.94-18.26,58.44,58.44,0,0,1-4.79-15,6.32,6.32,0,0,1,6.25-7.38H416.3a6.31,6.31,0,0,1,5.81,3.67,25.13,25.13,0,0,0,7.19,9.28q6.48,5.31,23.41,5.31t24.4-4.65q7.47-4.65,7.47-12.29a9.62,9.62,0,0,0-1.66-5.47c-1.11-1.66-3.15-3.21-6.14-4.65a69,69,0,0,0-12.12-4.15q-7.64-2-19.59-4a239.78,239.78,0,0,1-27.55-6,81.38,81.38,0,0,1-22.41-9.8A45.15,45.15,0,0,1,380.17,131q-5.48-9.63-5.48-24.24A45.15,45.15,0,0,1,380,85.19a50.57,50.57,0,0,1,15.44-17.26A78.92,78.92,0,0,1,420,56.47a118.68,118.68,0,0,1,32.7-4.15q20.58,0,34.69,5t23.08,13.11a52.06,52.06,0,0,1,13.28,18.43,73.23,73.23,0,0,1,4.16,13.3,6.34,6.34,0,0,1-6.22,7.62H482.76a6.64,6.64,0,0,1-6.12-4.11,21.42,21.42,0,0,0-7.33-9.34q-6.65-4.82-16.6-4.81-15.27,0-21.08,4.64t-5.81,11q0,7,9.29,10.79t29.55,6.47A197.06,197.06,0,0,1,492.05,130a81.09,81.09,0,0,1,22.58,10.13,48.32,48.32,0,0,1,15.44,16.26q5.64,9.79,5.64,23.74a50.27,50.27,0,0,1-5.31,23.08,49.63,49.63,0,0,1-15.77,17.92q-10.45,7.47-25.9,11.62T452.71,236.91Z"/><path class="cls-2" d="M646.93,236.91a115,115,0,0,1-36-5.48,75.79,75.79,0,0,1-48.31-45.15q-7-17.09-7-40v-6.64q0-21.91,6.8-38.18A77.44,77.44,0,0,1,581,74.23,76.62,76.62,0,0,1,608.91,57.8a107.13,107.13,0,0,1,34.7-5.48q43.83,0,65.9,22.24t22.08,65.08v14.8a3.46,3.46,0,0,1-3.46,3.46H611.76a3.46,3.46,0,0,0-3.44,3.8,41,41,0,0,0,3.42,13.63,34.87,34.87,0,0,0,8.63,11.78,33.25,33.25,0,0,0,12.28,6.81,48,48,0,0,0,14.28,2.16q14.94,0,23.24-4.48a22.58,22.58,0,0,0,10.11-10.08,3.51,3.51,0,0,1,3.16-2H724a3.46,3.46,0,0,1,3.38,4.23A70.48,70.48,0,0,1,719,204.54,61.45,61.45,0,0,1,702,222.64a71.38,71.38,0,0,1-24.24,10.79A127.43,127.43,0,0,1,646.93,236.91ZM612.16,124.36h65.72a3.47,3.47,0,0,0,3.46-3.69,32.24,32.24,0,0,0-2.71-11.58,24.79,24.79,0,0,0-7.8-9.62,30.64,30.64,0,0,0-11.62-5.15,63.16,63.16,0,0,0-13.94-1.5,54.28,54.28,0,0,0-13.45,1.66A33.46,33.46,0,0,0,620.2,100a28.62,28.62,0,0,0-8.3,9.8,30.66,30.66,0,0,0-3.17,10.7A3.46,3.46,0,0,0,612.16,124.36Z"/><path class="cls-3" d="M117.39,695.59a125,125,0,0,1-27.55-2.66,39.77,39.77,0,0,1-19.09-9.79Q63.28,676,59.62,663.55t-3.65-32V466.15a5,5,0,0,1,5-4.95h41.22a5,5,0,0,1,4.95,4.95V623.88a81.36,81.36,0,0,0,1,13.94,20.75,20.75,0,0,0,3.48,9,14,14,0,0,0,7.14,4.81,38.39,38.39,0,0,0,11.62,1.49q4,0,6.64-.16h0a5,5,0,0,1,5.31,5v32.19a5,5,0,0,1-4.6,4.95l-.54,0-6,.33q-3.16.17-6.64.17Z"/><path class="cls-3" d="M220.64,697.91a70,70,0,0,1-25.4-4.31,54.75,54.75,0,0,1-18.76-11.79,49.89,49.89,0,0,1-11.62-17.59,59.94,59.94,0,0,1-4-22.08q0-26.22,16.1-40.17t48.64-14H273a2.79,2.79,0,0,0,2.79-2.79v-4.51q0-15.94-7.63-22.08T247.2,552.5q-12.62,0-18.59,4a14.83,14.83,0,0,0-6.36,10.35,2.7,2.7,0,0,1-2.64,2.27H173.87a2.8,2.8,0,0,1-2.78-3.09,52.09,52.09,0,0,1,20.83-36.59A75.21,75.21,0,0,1,216,517.64q14.28-4.32,32.87-4.32a123.6,123.6,0,0,1,31.87,3.82,64.31,64.31,0,0,1,24.57,12.28,55.81,55.81,0,0,1,15.94,21.92q5.64,13.44,5.64,32.7v64.74q0,13.94.66,24.4.57,8.82,1.6,17.28a2.8,2.8,0,0,1-2.77,3.14H283.54a2.81,2.81,0,0,1-2.77-2.47c-.32-2.77-.61-5.26-.87-7.49l-.4-3.5a2.8,2.8,0,0,0-4.82-1.59q-2.21,2.28-4.74,4.42a55.23,55.23,0,0,1-12.61,8,72.11,72.11,0,0,1-16.27,5.15A105.17,105.17,0,0,1,220.64,697.91Zm16.6-35.85a45.61,45.61,0,0,0,15.11-2.49,37.24,37.24,0,0,0,12.28-7,32.21,32.21,0,0,0,8.13-11,34,34,0,0,0,3-14.44v-4.52a2.79,2.79,0,0,0-2.79-2.79H235.58q-11.29,0-16.77,6a20,20,0,0,0-5.47,13.94q0,9.63,5.47,15.94T237.24,662.06Z"/><path class="cls-3" d="M390.39,691.56,342.8,521.17a2.78,2.78,0,0,1,2.68-3.53h49.23a2.78,2.78,0,0,1,2.71,2.16l21.67,95.47a2.78,2.78,0,0,0,5.39.15l27.32-95.76a2.77,2.77,0,0,1,2.67-2h43.66a2.78,2.78,0,0,1,2.66,2l29.69,95.89a2.78,2.78,0,0,0,5.35-.13l24.57-95.63a2.79,2.79,0,0,1,2.7-2.09h44a2.78,2.78,0,0,1,2.68,3.53L562.17,691.56a2.78,2.78,0,0,1-2.68,2h-47a2.78,2.78,0,0,1-2.66-2L478.63,588.28a2.78,2.78,0,0,0-5.32,0L442.67,691.61a2.78,2.78,0,0,1-2.66,2H393.06A2.77,2.77,0,0,1,390.39,691.56Z"/><path class="cls-3" d="M168.19,500.42V267.9a4.92,4.92,0,0,1,4.92-4.92h37.3a4.92,4.92,0,0,1,4.92,4.92v5.4a4.92,4.92,0,0,0,8.35,3.53,79.28,79.28,0,0,1,12.24-9.37q13.94-8.79,34.19-8.8,37.18,0,56.44,21.91T345.81,346v6.64q0,22.25-5.31,39.34t-15.28,28.39a64.56,64.56,0,0,1-23.9,17.09,80.51,80.51,0,0,1-31.21,5.81,62.07,62.07,0,0,1-28.38-6.8,58.26,58.26,0,0,1-14-9.92,4.92,4.92,0,0,0-8.36,3.5v70.39a4.92,4.92,0,0,1-4.92,4.92H173.11A4.92,4.92,0,0,1,168.19,500.42Zm89.64-99.33a31.83,31.83,0,0,0,14.11-3.15,33,33,0,0,0,11.29-9.13,43.26,43.26,0,0,0,7.47-15.11,75.71,75.71,0,0,0,2.65-21.08V346a71.69,71.69,0,0,0-2.49-20.09,36.42,36.42,0,0,0-7.3-13.94,31.8,31.8,0,0,0-11.29-8.3,35.81,35.81,0,0,0-14.44-2.82,45.57,45.57,0,0,0-15.11,2.49A32,32,0,0,0,230.44,311a37.12,37.12,0,0,0-8.14,12.62,46.79,46.79,0,0,0-3,17.43v16.6a53.2,53.2,0,0,0,3,18.42,41.22,41.22,0,0,0,8.14,13.78,32.53,32.53,0,0,0,12.28,8.47A40.77,40.77,0,0,0,257.83,401.09Z"/><rect class="cls-2" x="55.68" y="136.22" width="51.13" height="108.17" rx="6.27"/><rect class="cls-3" x="55.97" y="262.97" width="51.13" height="181.95" rx="6.17"/></g></g></svg>